{
	"patcher" : 	{
		"fileversion" : 1,
		"rect" : [ 318.0, 165.0, 1224.0, 699.0 ],
		"bglocked" : 0,
		"defrect" : [ 318.0, 165.0, 1224.0, 699.0 ],
		"openrect" : [ 0.0, 0.0, 0.0, 0.0 ],
		"openinpresentation" : 0,
		"default_fontsize" : 12.0,
		"default_fontface" : 0,
		"default_fontname" : "Arial",
		"gridonopen" : 1,
		"gridsize" : [ 15.0, 15.0 ],
		"gridsnaponopen" : 1,
		"toolbarvisible" : 1,
		"boxanimatetime" : 200,
		"imprint" : 0,
		"boxes" : [ 			{
				"box" : 				{
					"maxclass" : "button",
					"numinlets" : 1,
					"id" : "obj-22",
					"numoutlets" : 1,
					"outlettype" : [ "bang" ],
					"patching_rect" : [ 211.0, 21.0, 20.0, 20.0 ]
				}

			}
, 			{
				"box" : 				{
					"maxclass" : "newobj",
					"text" : "s save",
					"numinlets" : 1,
					"id" : "obj-7",
					"numoutlets" : 0,
					"fontsize" : 12.0,
					"patching_rect" : [ 211.0, 47.0, 45.0, 20.0 ],
					"fontname" : "Arial"
				}

			}
, 			{
				"box" : 				{
					"maxclass" : "message",
					"text" : "poll 10",
					"numinlets" : 2,
					"id" : "obj-30",
					"numoutlets" : 1,
					"fontsize" : 12.0,
					"outlettype" : [ "" ],
					"patching_rect" : [ 913.0, 38.0, 46.0, 18.0 ],
					"fontname" : "Arial"
				}

			}
, 			{
				"box" : 				{
					"maxclass" : "flonum",
					"numinlets" : 1,
					"id" : "obj-24",
					"numoutlets" : 2,
					"fontsize" : 12.0,
					"outlettype" : [ "float", "bang" ],
					"patching_rect" : [ 949.0, 317.0, 50.0, 20.0 ],
					"fontname" : "Arial"
				}

			}
, 			{
				"box" : 				{
					"maxclass" : "newobj",
					"text" : "route 0",
					"numinlets" : 1,
					"id" : "obj-5",
					"numoutlets" : 2,
					"fontsize" : 12.0,
					"outlettype" : [ "", "" ],
					"patching_rect" : [ 931.0, 228.0, 48.0, 20.0 ],
					"fontname" : "Arial"
				}

			}
, 			{
				"box" : 				{
					"maxclass" : "number",
					"numinlets" : 1,
					"id" : "obj-20",
					"numoutlets" : 2,
					"fontsize" : 12.0,
					"outlettype" : [ "int", "bang" ],
					"patching_rect" : [ 657.0, 172.0, 50.0, 20.0 ],
					"fontname" : "Arial"
				}

			}
, 			{
				"box" : 				{
					"maxclass" : "number",
					"numinlets" : 1,
					"id" : "obj-21",
					"numoutlets" : 2,
					"fontsize" : 12.0,
					"outlettype" : [ "int", "bang" ],
					"patching_rect" : [ 601.0, 172.0, 50.0, 20.0 ],
					"fontname" : "Arial"
				}

			}
, 			{
				"box" : 				{
					"maxclass" : "number",
					"numinlets" : 1,
					"id" : "obj-19",
					"numoutlets" : 2,
					"fontsize" : 12.0,
					"outlettype" : [ "int", "bang" ],
					"patching_rect" : [ 215.0, 172.0, 50.0, 20.0 ],
					"fontname" : "Arial"
				}

			}
, 			{
				"box" : 				{
					"maxclass" : "number",
					"numinlets" : 1,
					"id" : "obj-2",
					"numoutlets" : 2,
					"fontsize" : 12.0,
					"outlettype" : [ "int", "bang" ],
					"patching_rect" : [ 159.0, 172.0, 50.0, 20.0 ],
					"fontname" : "Arial"
				}

			}
, 			{
				"box" : 				{
					"maxclass" : "number",
					"numinlets" : 1,
					"id" : "obj-1",
					"numoutlets" : 2,
					"fontsize" : 12.0,
					"outlettype" : [ "int", "bang" ],
					"patching_rect" : [ 103.0, 172.0, 50.0, 20.0 ],
					"fontname" : "Arial"
				}

			}
, 			{
				"box" : 				{
					"maxclass" : "message",
					"text" : "menu",
					"numinlets" : 2,
					"id" : "obj-3",
					"numoutlets" : 1,
					"fontsize" : 12.0,
					"outlettype" : [ "" ],
					"patching_rect" : [ 904.0, 183.0, 41.0, 18.0 ],
					"fontname" : "Arial"
				}

			}
, 			{
				"box" : 				{
					"maxclass" : "number",
					"numinlets" : 1,
					"id" : "obj-14",
					"numoutlets" : 2,
					"fontsize" : 12.0,
					"outlettype" : [ "int", "bang" ],
					"patching_rect" : [ 769.142883, 172.0, 50.0, 20.0 ],
					"fontname" : "Arial"
				}

			}
, 			{
				"box" : 				{
					"maxclass" : "number",
					"numinlets" : 1,
					"id" : "obj-15",
					"numoutlets" : 2,
					"fontsize" : 12.0,
					"outlettype" : [ "int", "bang" ],
					"patching_rect" : [ 714.142883, 172.0, 50.0, 20.0 ],
					"fontname" : "Arial"
				}

			}
, 			{
				"box" : 				{
					"maxclass" : "number",
					"numinlets" : 1,
					"id" : "obj-16",
					"numoutlets" : 2,
					"fontsize" : 12.0,
					"outlettype" : [ "int", "bang" ],
					"patching_rect" : [ 549.0, 172.0, 50.0, 20.0 ],
					"fontname" : "Arial"
				}

			}
, 			{
				"box" : 				{
					"maxclass" : "number",
					"numinlets" : 1,
					"id" : "obj-17",
					"numoutlets" : 2,
					"fontsize" : 12.0,
					"outlettype" : [ "int", "bang" ],
					"patching_rect" : [ 493.0, 172.0, 50.0, 20.0 ],
					"fontname" : "Arial"
				}

			}
, 			{
				"box" : 				{
					"maxclass" : "number",
					"numinlets" : 1,
					"id" : "obj-18",
					"numoutlets" : 2,
					"fontsize" : 12.0,
					"outlettype" : [ "int", "bang" ],
					"patching_rect" : [ 437.0, 172.0, 50.0, 20.0 ],
					"fontname" : "Arial"
				}

			}
, 			{
				"box" : 				{
					"maxclass" : "number",
					"numinlets" : 1,
					"id" : "obj-13",
					"numoutlets" : 2,
					"fontsize" : 12.0,
					"outlettype" : [ "int", "bang" ],
					"patching_rect" : [ 383.0, 172.0, 50.0, 20.0 ],
					"fontname" : "Arial"
				}

			}
, 			{
				"box" : 				{
					"maxclass" : "number",
					"numinlets" : 1,
					"id" : "obj-11",
					"numoutlets" : 2,
					"fontsize" : 12.0,
					"outlettype" : [ "int", "bang" ],
					"patching_rect" : [ 328.0, 172.0, 50.0, 20.0 ],
					"fontname" : "Arial"
				}

			}
, 			{
				"box" : 				{
					"maxclass" : "number",
					"numinlets" : 1,
					"id" : "obj-12",
					"numoutlets" : 2,
					"fontsize" : 12.0,
					"outlettype" : [ "int", "bang" ],
					"patching_rect" : [ 271.0, 172.0, 50.0, 20.0 ],
					"fontname" : "Arial"
				}

			}
, 			{
				"box" : 				{
					"maxclass" : "number",
					"numinlets" : 1,
					"id" : "obj-10",
					"numoutlets" : 2,
					"fontsize" : 12.0,
					"outlettype" : [ "int", "bang" ],
					"patching_rect" : [ 46.0, 172.0, 50.0, 20.0 ],
					"fontname" : "Arial"
				}

			}
, 			{
				"box" : 				{
					"maxclass" : "number",
					"numinlets" : 1,
					"id" : "obj-8",
					"numoutlets" : 2,
					"fontsize" : 12.0,
					"outlettype" : [ "int", "bang" ],
					"patching_rect" : [ -10.0, 172.0, 50.0, 20.0 ],
					"fontname" : "Arial"
				}

			}
, 			{
				"box" : 				{
					"maxclass" : "newobj",
					"text" : "p buttonLogger",
					"numinlets" : 1,
					"id" : "obj-6",
					"numoutlets" : 16,
					"fontsize" : 12.0,
					"outlettype" : [ "float", "float", "float", "float", "int", "int", "int", "int", "int", "int", "int", "int", "int", "int", "int", "" ],
					"patching_rect" : [ 44.0, 128.0, 725.0, 20.0 ],
					"fontname" : "Arial",
					"patcher" : 					{
						"fileversion" : 1,
						"rect" : [ 608.0, 233.0, 1218.0, 715.0 ],
						"bglocked" : 0,
						"defrect" : [ 608.0, 233.0, 1218.0, 715.0 ],
						"openrect" : [ 0.0, 0.0, 0.0, 0.0 ],
						"openinpresentation" : 0,
						"default_fontsize" : 12.0,
						"default_fontface" : 0,
						"default_fontname" : "Arial",
						"gridonopen" : 1,
						"gridsize" : [ 15.0, 15.0 ],
						"gridsnaponopen" : 1,
						"toolbarvisible" : 1,
						"boxanimatetime" : 200,
						"imprint" : 0,
						"visible" : 1,
						"boxes" : [ 							{
								"box" : 								{
									"maxclass" : "newobj",
									"text" : "r save",
									"numinlets" : 0,
									"id" : "obj-31",
									"presentation_rect" : [ 318.0, 7.0, 0.0, 0.0 ],
									"numoutlets" : 1,
									"fontsize" : 12.0,
									"outlettype" : [ "" ],
									"patching_rect" : [ 318.0, 7.0, 43.0, 20.0 ],
									"fontname" : "Arial"
								}

							}
, 							{
								"box" : 								{
									"maxclass" : "button",
									"numinlets" : 1,
									"id" : "obj-30",
									"numoutlets" : 1,
									"outlettype" : [ "bang" ],
									"patching_rect" : [ 23.0, 310.0, 20.0, 20.0 ]
								}

							}
, 							{
								"box" : 								{
									"maxclass" : "message",
									"text" : "write LxAxis",
									"numinlets" : 2,
									"id" : "obj-24",
									"presentation_rect" : [ 556.0, 41.0, 0.0, 0.0 ],
									"numoutlets" : 1,
									"fontsize" : 12.0,
									"outlettype" : [ "" ],
									"patching_rect" : [ 556.0, 41.0, 75.0, 18.0 ],
									"fontname" : "Arial"
								}

							}
, 							{
								"box" : 								{
									"maxclass" : "message",
									"text" : "write LxAxis",
									"numinlets" : 2,
									"id" : "obj-22",
									"presentation_rect" : [ 477.0, 41.0, 0.0, 0.0 ],
									"numoutlets" : 1,
									"fontsize" : 12.0,
									"outlettype" : [ "" ],
									"patching_rect" : [ 477.0, 41.0, 75.0, 18.0 ],
									"fontname" : "Arial"
								}

							}
, 							{
								"box" : 								{
									"maxclass" : "message",
									"text" : "write LxAxis",
									"numinlets" : 2,
									"id" : "obj-21",
									"presentation_rect" : [ 396.0, 41.0, 0.0, 0.0 ],
									"numoutlets" : 1,
									"fontsize" : 12.0,
									"outlettype" : [ "" ],
									"patching_rect" : [ 396.0, 41.0, 75.0, 18.0 ],
									"fontname" : "Arial"
								}

							}
, 							{
								"box" : 								{
									"maxclass" : "message",
									"text" : "write LyAxis",
									"numinlets" : 2,
									"id" : "obj-20",
									"presentation_rect" : [ 318.0, 41.0, 0.0, 0.0 ],
									"numoutlets" : 1,
									"fontsize" : 12.0,
									"outlettype" : [ "" ],
									"patching_rect" : [ 318.0, 41.0, 74.0, 18.0 ],
									"fontname" : "Arial"
								}

							}
, 							{
								"box" : 								{
									"maxclass" : "newobj",
									"text" : "r save",
									"numinlets" : 0,
									"id" : "obj-7",
									"numoutlets" : 1,
									"fontsize" : 12.0,
									"outlettype" : [ "" ],
									"patching_rect" : [ 237.0, 8.0, 43.0, 20.0 ],
									"fontname" : "Arial"
								}

							}
, 							{
								"box" : 								{
									"maxclass" : "newobj",
									"text" : "r start",
									"numinlets" : 0,
									"id" : "obj-26",
									"numoutlets" : 1,
									"fontsize" : 12.0,
									"outlettype" : [ "" ],
									"patching_rect" : [ 1139.0, 29.0, 52.0, 20.0 ],
									"fontname" : "Arial"
								}

							}
, 							{
								"box" : 								{
									"maxclass" : "message",
									"text" : "write LxAxis",
									"numinlets" : 2,
									"id" : "obj-23",
									"numoutlets" : 1,
									"fontsize" : 12.0,
									"outlettype" : [ "" ],
									"patching_rect" : [ 237.000015, 42.0, 75.0, 18.0 ],
									"fontname" : "Arial"
								}

							}
, 							{
								"box" : 								{
									"maxclass" : "lcd",
									"numinlets" : 1,
									"id" : "obj-124",
									"numoutlets" : 4,
									"outlettype" : [ "list", "list", "int", "" ],
									"patching_rect" : [ 104.666656, 813.333374, 412.666687, 260.0 ]
								}

							}
, 							{
								"box" : 								{
									"maxclass" : "newobj",
									"text" : "prepend framerect",
									"numinlets" : 1,
									"id" : "obj-125",
									"numoutlets" : 1,
									"fontsize" : 12.0,
									"outlettype" : [ "" ],
									"patching_rect" : [ 133.500015, 753.0, 109.0, 20.0 ],
									"fontname" : "Arial"
								}

							}
, 							{
								"box" : 								{
									"maxclass" : "newobj",
									"text" : "pack f f f f",
									"numinlets" : 4,
									"id" : "obj-126",
									"numoutlets" : 1,
									"fontsize" : 12.0,
									"outlettype" : [ "" ],
									"patching_rect" : [ 150.000015, 708.0, 63.0, 20.0 ],
									"fontname" : "Arial"
								}

							}
, 							{
								"box" : 								{
									"maxclass" : "newobj",
									"text" : "route 2",
									"numinlets" : 1,
									"id" : "obj-123",
									"numoutlets" : 2,
									"fontsize" : 12.0,
									"outlettype" : [ "", "" ],
									"patching_rect" : [ 353.0, 415.0, 48.0, 20.0 ],
									"fontname" : "Arial"
								}

							}
, 							{
								"box" : 								{
									"maxclass" : "number",
									"numinlets" : 1,
									"id" : "obj-121",
									"numoutlets" : 2,
									"fontsize" : 12.0,
									"outlettype" : [ "int", "bang" ],
									"patching_rect" : [ 463.0, 717.0, 50.0, 20.0 ],
									"fontname" : "Arial"
								}

							}
, 							{
								"box" : 								{
									"maxclass" : "newobj",
									"text" : "scale 65408 128 0 127",
									"numinlets" : 6,
									"id" : "obj-118",
									"numoutlets" : 1,
									"fontsize" : 12.0,
									"outlettype" : [ "int" ],
									"patching_rect" : [ 372.0, 655.0, 132.0, 20.0 ],
									"fontname" : "Arial"
								}

							}
, 							{
								"box" : 								{
									"maxclass" : "slider",
									"numinlets" : 1,
									"id" : "obj-117",
									"numoutlets" : 1,
									"outlettype" : [ "" ],
									"patching_rect" : [ 306.0, 583.0, 20.0, 140.0 ]
								}

							}
, 							{
								"box" : 								{
									"maxclass" : "newobj",
									"text" : "print",
									"numinlets" : 1,
									"id" : "obj-116",
									"numoutlets" : 0,
									"fontsize" : 12.0,
									"patching_rect" : [ 348.0, 466.0, 34.0, 20.0 ],
									"fontname" : "Arial"
								}

							}
, 							{
								"box" : 								{
									"maxclass" : "number",
									"numinlets" : 1,
									"id" : "obj-114",
									"numoutlets" : 2,
									"fontsize" : 12.0,
									"outlettype" : [ "int", "bang" ],
									"patching_rect" : [ 312.5, 496.400024, 50.0, 20.0 ],
									"fontname" : "Arial"
								}

							}
, 							{
								"box" : 								{
									"maxclass" : "newobj",
									"text" : "buttonLog",
									"numinlets" : 1,
									"id" : "obj-110",
									"numoutlets" : 2,
									"fontsize" : 12.0,
									"outlettype" : [ "", "int" ],
									"patching_rect" : [ 280.5, 404.399994, 64.0, 20.0 ],
									"fontname" : "Arial"
								}

							}
, 							{
								"box" : 								{
									"maxclass" : "newobj",
									"text" : "coll L2R2",
									"numinlets" : 1,
									"id" : "obj-111",
									"numoutlets" : 4,
									"fontsize" : 12.0,
									"outlettype" : [ "", "", "", "" ],
									"patching_rect" : [ 280.5, 532.400024, 61.0, 20.0 ],
									"fontname" : "Arial",
									"saved_object_attributes" : 									{
										"embed" : 0
									}

								}

							}
, 							{
								"box" : 								{
									"maxclass" : "message",
									"text" : "8",
									"numinlets" : 2,
									"id" : "obj-112",
									"numoutlets" : 1,
									"fontsize" : 12.0,
									"outlettype" : [ "" ],
									"patching_rect" : [ 280.5, 370.399994, 29.5, 18.0 ],
									"fontname" : "Arial"
								}

							}
, 							{
								"box" : 								{
									"maxclass" : "comment",
									"text" : "L2 - R2",
									"numinlets" : 1,
									"id" : "obj-113",
									"numoutlets" : 0,
									"fontsize" : 10.0,
									"patching_rect" : [ 315.5, 370.399994, 45.0, 18.0 ],
									"fontname" : "Arial"
								}

							}
, 							{
								"box" : 								{
									"maxclass" : "newobj",
									"text" : "scale 1 65535 -10 10",
									"numinlets" : 6,
									"id" : "obj-104",
									"numoutlets" : 1,
									"fontsize" : 12.0,
									"outlettype" : [ "int" ],
									"patching_rect" : [ 2.350003, 443.299988, 123.0, 20.0 ],
									"fontname" : "Arial"
								}

							}
, 							{
								"box" : 								{
									"maxclass" : "flonum",
									"numinlets" : 1,
									"id" : "obj-105",
									"numoutlets" : 2,
									"fontsize" : 12.0,
									"outlettype" : [ "float", "bang" ],
									"patching_rect" : [ 2.350003, 473.200012, 50.0, 20.0 ],
									"fontname" : "Arial"
								}

							}
, 							{
								"box" : 								{
									"maxclass" : "flonum",
									"numinlets" : 1,
									"id" : "obj-106",
									"numoutlets" : 2,
									"fontsize" : 12.0,
									"outlettype" : [ "float", "bang" ],
									"patching_rect" : [ 152.100006, 473.200012, 50.0, 20.0 ],
									"fontname" : "Arial"
								}

							}
, 							{
								"box" : 								{
									"maxclass" : "newobj",
									"text" : "scale 0 65534 10 -10",
									"numinlets" : 6,
									"id" : "obj-107",
									"numoutlets" : 1,
									"fontsize" : 12.0,
									"outlettype" : [ "int" ],
									"patching_rect" : [ 137.999985, 443.299988, 123.0, 20.0 ],
									"fontname" : "Arial"
								}

							}
, 							{
								"box" : 								{
									"maxclass" : "newobj",
									"text" : "/ 128",
									"numinlets" : 2,
									"id" : "obj-93",
									"numoutlets" : 1,
									"fontsize" : 12.0,
									"outlettype" : [ "int" ],
									"patching_rect" : [ 463.25, 519.400024, 37.0, 20.0 ],
									"fontname" : "Arial"
								}

							}
, 							{
								"box" : 								{
									"maxclass" : "newobj",
									"text" : "/ 128",
									"numinlets" : 2,
									"id" : "obj-94",
									"numoutlets" : 1,
									"fontsize" : 12.0,
									"outlettype" : [ "int" ],
									"patching_rect" : [ 907.25, 517.400024, 37.0, 20.0 ],
									"fontname" : "Arial"
								}

							}
, 							{
								"box" : 								{
									"maxclass" : "newobj",
									"text" : "/ 128",
									"numinlets" : 2,
									"id" : "obj-95",
									"numoutlets" : 1,
									"fontsize" : 12.0,
									"outlettype" : [ "int" ],
									"patching_rect" : [ 808.049988, 517.400024, 37.0, 20.0 ],
									"fontname" : "Arial"
								}

							}
, 							{
								"box" : 								{
									"maxclass" : "newobj",
									"text" : "/ 128",
									"numinlets" : 2,
									"id" : "obj-96",
									"numoutlets" : 1,
									"fontsize" : 12.0,
									"outlettype" : [ "int" ],
									"patching_rect" : [ 706.25, 519.400024, 37.0, 20.0 ],
									"fontname" : "Arial"
								}

							}
, 							{
								"box" : 								{
									"maxclass" : "newobj",
									"text" : "/ 128",
									"numinlets" : 2,
									"id" : "obj-97",
									"numoutlets" : 1,
									"fontsize" : 12.0,
									"outlettype" : [ "int" ],
									"patching_rect" : [ 565.25, 519.400024, 37.0, 20.0 ],
									"fontname" : "Arial"
								}

							}
, 							{
								"box" : 								{
									"maxclass" : "newobj",
									"text" : "/ 128",
									"numinlets" : 2,
									"id" : "obj-92",
									"numoutlets" : 1,
									"fontsize" : 12.0,
									"outlettype" : [ "int" ],
									"patching_rect" : [ 463.450012, 291.600006, 37.0, 20.0 ],
									"fontname" : "Arial"
								}

							}
, 							{
								"box" : 								{
									"maxclass" : "newobj",
									"text" : "/ 128",
									"numinlets" : 2,
									"id" : "obj-91",
									"numoutlets" : 1,
									"fontsize" : 12.0,
									"outlettype" : [ "int" ],
									"patching_rect" : [ 907.450012, 289.600006, 37.0, 20.0 ],
									"fontname" : "Arial"
								}

							}
, 							{
								"box" : 								{
									"maxclass" : "newobj",
									"text" : "/ 128",
									"numinlets" : 2,
									"id" : "obj-90",
									"numoutlets" : 1,
									"fontsize" : 12.0,
									"outlettype" : [ "int" ],
									"patching_rect" : [ 802.450012, 291.600006, 37.0, 20.0 ],
									"fontname" : "Arial"
								}

							}
, 							{
								"box" : 								{
									"maxclass" : "newobj",
									"text" : "/ 128",
									"numinlets" : 2,
									"id" : "obj-89",
									"numoutlets" : 1,
									"fontsize" : 12.0,
									"outlettype" : [ "int" ],
									"patching_rect" : [ 702.450012, 291.600006, 37.0, 20.0 ],
									"fontname" : "Arial"
								}

							}
, 							{
								"box" : 								{
									"maxclass" : "newobj",
									"text" : "/ 128",
									"numinlets" : 2,
									"id" : "obj-88",
									"numoutlets" : 1,
									"fontsize" : 12.0,
									"outlettype" : [ "int" ],
									"patching_rect" : [ 565.450012, 291.600006, 37.0, 20.0 ],
									"fontname" : "Arial"
								}

							}
, 							{
								"box" : 								{
									"maxclass" : "outlet",
									"numinlets" : 1,
									"id" : "obj-87",
									"numoutlets" : 0,
									"patching_rect" : [ 223.000015, 619.400024, 30.0, 30.0 ],
									"comment" : ""
								}

							}
, 							{
								"box" : 								{
									"maxclass" : "newobj",
									"text" : "if $i1 == -1 then -1 else $i2",
									"numinlets" : 2,
									"id" : "obj-86",
									"numoutlets" : 1,
									"fontsize" : 12.0,
									"outlettype" : [ "" ],
									"patching_rect" : [ 229.0, 284.399994, 153.0, 20.0 ],
									"fontname" : "Arial"
								}

							}
, 							{
								"box" : 								{
									"maxclass" : "number",
									"numinlets" : 1,
									"id" : "obj-85",
									"numoutlets" : 2,
									"fontsize" : 12.0,
									"outlettype" : [ "int", "bang" ],
									"patching_rect" : [ 237.000015, 318.400024, 50.0, 20.0 ],
									"fontname" : "Arial"
								}

							}
, 							{
								"box" : 								{
									"maxclass" : "newobj",
									"text" : "* 0.01",
									"numinlets" : 2,
									"id" : "obj-83",
									"numoutlets" : 1,
									"fontsize" : 12.0,
									"outlettype" : [ "float" ],
									"patching_rect" : [ 312.5, 319.399994, 42.0, 20.0 ],
									"fontname" : "Arial"
								}

							}
, 							{
								"box" : 								{
									"maxclass" : "number",
									"numinlets" : 1,
									"id" : "obj-78",
									"numoutlets" : 2,
									"fontsize" : 12.0,
									"outlettype" : [ "int", "bang" ],
									"patching_rect" : [ 280.5, 225.600006, 50.0, 20.0 ],
									"fontname" : "Arial"
								}

							}
, 							{
								"box" : 								{
									"maxclass" : "newobj",
									"text" : "buttonLog",
									"numinlets" : 1,
									"id" : "obj-79",
									"numoutlets" : 2,
									"fontsize" : 12.0,
									"outlettype" : [ "", "int" ],
									"patching_rect" : [ 263.0, 188.0, 64.0, 20.0 ],
									"fontname" : "Arial"
								}

							}
, 							{
								"box" : 								{
									"maxclass" : "newobj",
									"text" : "coll LDir",
									"numinlets" : 1,
									"id" : "obj-80",
									"numoutlets" : 4,
									"fontsize" : 12.0,
									"outlettype" : [ "", "", "", "" ],
									"patching_rect" : [ 262.5, 253.600006, 54.0, 20.0 ],
									"fontname" : "Arial",
									"saved_object_attributes" : 									{
										"embed" : 0
									}

								}

							}
, 							{
								"box" : 								{
									"maxclass" : "message",
									"text" : "32",
									"numinlets" : 2,
									"id" : "obj-81",
									"numoutlets" : 1,
									"fontsize" : 12.0,
									"outlettype" : [ "" ],
									"patching_rect" : [ 262.5, 129.0, 29.5, 18.0 ],
									"fontname" : "Arial"
								}

							}
, 							{
								"box" : 								{
									"maxclass" : "comment",
									"text" : "Directional",
									"numinlets" : 1,
									"id" : "obj-82",
									"numoutlets" : 0,
									"fontsize" : 10.0,
									"patching_rect" : [ 297.5, 129.0, 62.0, 18.0 ],
									"fontname" : "Arial"
								}

							}
, 							{
								"box" : 								{
									"maxclass" : "outlet",
									"numinlets" : 1,
									"id" : "obj-76",
									"numoutlets" : 0,
									"patching_rect" : [ 778.049988, 619.400024, 30.0, 30.0 ],
									"comment" : ""
								}

							}
, 							{
								"box" : 								{
									"maxclass" : "outlet",
									"numinlets" : 1,
									"id" : "obj-77",
									"numoutlets" : 0,
									"patching_rect" : [ 726.050049, 619.400024, 30.0, 30.0 ],
									"comment" : ""
								}

							}
, 							{
								"box" : 								{
									"maxclass" : "number",
									"numinlets" : 1,
									"id" : "obj-66",
									"numoutlets" : 2,
									"fontsize" : 12.0,
									"outlettype" : [ "int", "bang" ],
									"patching_rect" : [ 756.049988, 517.400024, 50.0, 20.0 ],
									"fontname" : "Arial"
								}

							}
, 							{
								"box" : 								{
									"maxclass" : "number",
									"numinlets" : 1,
									"id" : "obj-67",
									"numoutlets" : 2,
									"fontsize" : 12.0,
									"outlettype" : [ "int", "bang" ],
									"patching_rect" : [ 746.049988, 291.600006, 50.0, 20.0 ],
									"fontname" : "Arial"
								}

							}
, 							{
								"box" : 								{
									"maxclass" : "newobj",
									"text" : "buttonLog",
									"numinlets" : 1,
									"id" : "obj-68",
									"numoutlets" : 2,
									"fontsize" : 12.0,
									"outlettype" : [ "", "int" ],
									"patching_rect" : [ 739.049988, 402.399994, 64.0, 20.0 ],
									"fontname" : "Arial"
								}

							}
, 							{
								"box" : 								{
									"maxclass" : "newobj",
									"text" : "coll R1",
									"numinlets" : 1,
									"id" : "obj-69",
									"numoutlets" : 4,
									"fontsize" : 12.0,
									"outlettype" : [ "", "", "", "" ],
									"patching_rect" : [ 739.049988, 549.400024, 50.5, 20.0 ],
									"fontname" : "Arial",
									"saved_object_attributes" : 									{
										"embed" : 0
									}

								}

							}
, 							{
								"box" : 								{
									"maxclass" : "message",
									"text" : "57",
									"numinlets" : 2,
									"id" : "obj-70",
									"numoutlets" : 1,
									"fontsize" : 12.0,
									"outlettype" : [ "" ],
									"patching_rect" : [ 739.049988, 368.399994, 29.5, 18.0 ],
									"fontname" : "Arial"
								}

							}
, 							{
								"box" : 								{
									"maxclass" : "comment",
									"text" : "R3",
									"numinlets" : 1,
									"id" : "obj-71",
									"numoutlets" : 0,
									"fontsize" : 10.0,
									"patching_rect" : [ 774.049988, 368.399994, 38.0, 18.0 ],
									"fontname" : "Arial"
								}

							}
, 							{
								"box" : 								{
									"maxclass" : "newobj",
									"text" : "buttonLog",
									"numinlets" : 1,
									"id" : "obj-72",
									"numoutlets" : 2,
									"fontsize" : 12.0,
									"outlettype" : [ "", "int" ],
									"patching_rect" : [ 731.549988, 186.0, 64.0, 20.0 ],
									"fontname" : "Arial"
								}

							}
, 							{
								"box" : 								{
									"maxclass" : "newobj",
									"text" : "coll L1",
									"numinlets" : 1,
									"id" : "obj-73",
									"numoutlets" : 4,
									"fontsize" : 12.0,
									"outlettype" : [ "", "", "", "" ],
									"patching_rect" : [ 731.049988, 317.600006, 50.5, 20.0 ],
									"fontname" : "Arial",
									"saved_object_attributes" : 									{
										"embed" : 0
									}

								}

							}
, 							{
								"box" : 								{
									"maxclass" : "message",
									"text" : "56",
									"numinlets" : 2,
									"id" : "obj-74",
									"numoutlets" : 1,
									"fontsize" : 12.0,
									"outlettype" : [ "" ],
									"patching_rect" : [ 731.049988, 127.0, 29.5, 18.0 ],
									"fontname" : "Arial"
								}

							}
, 							{
								"box" : 								{
									"maxclass" : "comment",
									"text" : "L3",
									"numinlets" : 1,
									"id" : "obj-75",
									"numoutlets" : 0,
									"fontsize" : 10.0,
									"patching_rect" : [ 766.049988, 127.0, 38.0, 18.0 ],
									"fontname" : "Arial"
								}

							}
, 							{
								"box" : 								{
									"maxclass" : "outlet",
									"numinlets" : 1,
									"id" : "obj-52",
									"numoutlets" : 0,
									"patching_rect" : [ 153.700012, 619.400024, 30.0, 30.0 ],
									"comment" : ""
								}

							}
, 							{
								"box" : 								{
									"maxclass" : "outlet",
									"numinlets" : 1,
									"id" : "obj-53",
									"numoutlets" : 0,
									"patching_rect" : [ 110.100014, 619.400024, 30.0, 30.0 ],
									"comment" : ""
								}

							}
, 							{
								"box" : 								{
									"maxclass" : "number",
									"numinlets" : 1,
									"id" : "obj-35",
									"numoutlets" : 2,
									"fontsize" : 12.0,
									"outlettype" : [ "int", "bang" ],
									"patching_rect" : [ 156.500015, 513.400024, 50.0, 20.0 ],
									"fontname" : "Arial"
								}

							}
, 							{
								"box" : 								{
									"maxclass" : "number",
									"numinlets" : 1,
									"id" : "obj-36",
									"numoutlets" : 2,
									"fontsize" : 12.0,
									"outlettype" : [ "int", "bang" ],
									"patching_rect" : [ 64.000015, 513.400024, 50.0, 20.0 ],
									"fontname" : "Arial"
								}

							}
, 							{
								"box" : 								{
									"maxclass" : "newobj",
									"text" : "buttonLog",
									"numinlets" : 1,
									"id" : "obj-37",
									"numoutlets" : 2,
									"fontsize" : 12.0,
									"outlettype" : [ "", "int" ],
									"patching_rect" : [ 133.5, 404.399994, 64.0, 20.0 ],
									"fontname" : "Arial"
								}

							}
, 							{
								"box" : 								{
									"maxclass" : "newobj",
									"text" : "coll RyAxis",
									"numinlets" : 1,
									"id" : "obj-38",
									"numoutlets" : 4,
									"fontsize" : 12.0,
									"outlettype" : [ "", "", "", "" ],
									"patching_rect" : [ 133.500015, 541.400024, 69.0, 20.0 ],
									"fontname" : "Arial",
									"saved_object_attributes" : 									{
										"embed" : 0
									}

								}

							}
, 							{
								"box" : 								{
									"maxclass" : "message",
									"text" : "16",
									"numinlets" : 2,
									"id" : "obj-39",
									"numoutlets" : 1,
									"fontsize" : 12.0,
									"outlettype" : [ "" ],
									"patching_rect" : [ 133.5, 370.399994, 29.5, 18.0 ],
									"fontname" : "Arial"
								}

							}
, 							{
								"box" : 								{
									"maxclass" : "comment",
									"text" : "RyAxis",
									"numinlets" : 1,
									"id" : "obj-40",
									"numoutlets" : 0,
									"fontsize" : 10.0,
									"patching_rect" : [ 168.5, 370.399994, 44.0, 18.0 ],
									"fontname" : "Arial"
								}

							}
, 							{
								"box" : 								{
									"maxclass" : "newobj",
									"text" : "buttonLog",
									"numinlets" : 1,
									"id" : "obj-41",
									"numoutlets" : 2,
									"fontsize" : 12.0,
									"outlettype" : [ "", "int" ],
									"patching_rect" : [ 46.0, 404.399994, 64.0, 20.0 ],
									"fontname" : "Arial"
								}

							}
, 							{
								"box" : 								{
									"maxclass" : "newobj",
									"text" : "coll RxAxis",
									"numinlets" : 1,
									"id" : "obj-42",
									"numoutlets" : 4,
									"fontsize" : 12.0,
									"outlettype" : [ "", "", "", "" ],
									"patching_rect" : [ 46.000015, 541.400024, 69.0, 20.0 ],
									"fontname" : "Arial",
									"saved_object_attributes" : 									{
										"embed" : 0
									}

								}

							}
, 							{
								"box" : 								{
									"maxclass" : "message",
									"text" : "12",
									"numinlets" : 2,
									"id" : "obj-43",
									"numoutlets" : 1,
									"fontsize" : 12.0,
									"outlettype" : [ "" ],
									"patching_rect" : [ 46.0, 370.399994, 29.5, 18.0 ],
									"fontname" : "Arial"
								}

							}
, 							{
								"box" : 								{
									"maxclass" : "comment",
									"text" : "RxAxis",
									"numinlets" : 1,
									"id" : "obj-44",
									"numoutlets" : 0,
									"fontsize" : 10.0,
									"patching_rect" : [ 81.0, 370.399994, 42.0, 18.0 ],
									"fontname" : "Arial"
								}

							}
, 							{
								"box" : 								{
									"maxclass" : "message",
									"text" : "poll 10",
									"numinlets" : 2,
									"id" : "obj-28",
									"numoutlets" : 1,
									"fontsize" : 12.0,
									"outlettype" : [ "" ],
									"patching_rect" : [ 1139.0, 93.0, 46.0, 18.0 ],
									"fontname" : "Arial"
								}

							}
, 							{
								"box" : 								{
									"maxclass" : "outlet",
									"numinlets" : 1,
									"id" : "obj-5",
									"numoutlets" : 0,
									"patching_rect" : [ 1018.75, 260.0, 30.0, 30.0 ],
									"comment" : ""
								}

							}
, 							{
								"box" : 								{
									"maxclass" : "inlet",
									"numinlets" : 0,
									"id" : "obj-3",
									"numoutlets" : 1,
									"outlettype" : [ "int" ],
									"patching_rect" : [ 930.0, 21.0, 30.0, 30.0 ],
									"comment" : ""
								}

							}
, 							{
								"box" : 								{
									"maxclass" : "outlet",
									"numinlets" : 1,
									"id" : "obj-15",
									"numoutlets" : 0,
									"patching_rect" : [ 876.900024, 619.400024, 30.0, 30.0 ],
									"comment" : ""
								}

							}
, 							{
								"box" : 								{
									"maxclass" : "outlet",
									"numinlets" : 1,
									"id" : "obj-16",
									"numoutlets" : 0,
									"patching_rect" : [ 828.300049, 619.400024, 30.0, 30.0 ],
									"comment" : ""
								}

							}
, 							{
								"box" : 								{
									"maxclass" : "outlet",
									"numinlets" : 1,
									"id" : "obj-17",
									"numoutlets" : 0,
									"patching_rect" : [ 673.25, 617.400024, 30.0, 30.0 ],
									"comment" : ""
								}

							}
, 							{
								"box" : 								{
									"maxclass" : "outlet",
									"numinlets" : 1,
									"id" : "obj-18",
									"numoutlets" : 0,
									"patching_rect" : [ 629.75, 617.400024, 30.0, 30.0 ],
									"comment" : ""
								}

							}
, 							{
								"box" : 								{
									"maxclass" : "outlet",
									"numinlets" : 1,
									"id" : "obj-19",
									"numoutlets" : 0,
									"patching_rect" : [ 584.650024, 617.400024, 30.0, 30.0 ],
									"comment" : ""
								}

							}
, 							{
								"box" : 								{
									"maxclass" : "outlet",
									"numinlets" : 1,
									"id" : "obj-14",
									"numoutlets" : 0,
									"patching_rect" : [ 537.25, 617.400024, 30.0, 30.0 ],
									"comment" : ""
								}

							}
, 							{
								"box" : 								{
									"maxclass" : "outlet",
									"numinlets" : 1,
									"id" : "obj-13",
									"numoutlets" : 0,
									"patching_rect" : [ 494.25, 617.400024, 30.0, 30.0 ],
									"comment" : ""
								}

							}
, 							{
								"box" : 								{
									"maxclass" : "outlet",
									"numinlets" : 1,
									"id" : "obj-11",
									"numoutlets" : 0,
									"patching_rect" : [ 445.25, 617.400024, 30.0, 30.0 ],
									"comment" : ""
								}

							}
, 							{
								"box" : 								{
									"maxclass" : "outlet",
									"numinlets" : 1,
									"id" : "obj-10",
									"numoutlets" : 0,
									"patching_rect" : [ 58.700016, 619.400024, 30.0, 30.0 ],
									"comment" : ""
								}

							}
, 							{
								"box" : 								{
									"maxclass" : "outlet",
									"numinlets" : 1,
									"id" : "obj-9",
									"numoutlets" : 0,
									"patching_rect" : [ 15.100015, 619.400024, 30.0, 30.0 ],
									"comment" : ""
								}

							}
, 							{
								"box" : 								{
									"maxclass" : "newobj",
									"text" : "send gameData",
									"numinlets" : 1,
									"id" : "obj-8",
									"numoutlets" : 0,
									"fontsize" : 12.0,
									"patching_rect" : [ 1008.25, 127.0, 95.0, 20.0 ],
									"fontname" : "Arial"
								}

							}
, 							{
								"box" : 								{
									"maxclass" : "newobj",
									"text" : "loadmess poll 10",
									"numinlets" : 1,
									"id" : "obj-6",
									"numoutlets" : 1,
									"fontsize" : 12.0,
									"outlettype" : [ "" ],
									"patching_rect" : [ 1030.0, 53.0, 101.0, 20.0 ],
									"fontname" : "Arial"
								}

							}
, 							{
								"box" : 								{
									"maxclass" : "newobj",
									"text" : "loadmess menu",
									"numinlets" : 1,
									"id" : "obj-4",
									"numoutlets" : 1,
									"fontsize" : 12.0,
									"outlettype" : [ "" ],
									"patching_rect" : [ 1008.25, 21.0, 95.0, 20.0 ],
									"fontname" : "Arial"
								}

							}
, 							{
								"box" : 								{
									"maxclass" : "newobj",
									"text" : "hi",
									"numinlets" : 1,
									"id" : "obj-2",
									"numoutlets" : 2,
									"fontsize" : 12.0,
									"outlettype" : [ "list", "" ],
									"patching_rect" : [ 1008.25, 89.0, 29.5, 20.0 ],
									"fontname" : "Arial"
								}

							}
, 							{
								"box" : 								{
									"maxclass" : "number",
									"numinlets" : 1,
									"id" : "obj-255",
									"numoutlets" : 2,
									"fontsize" : 12.0,
									"outlettype" : [ "int", "bang" ],
									"patching_rect" : [ 852.900024, 517.400024, 50.0, 20.0 ],
									"fontname" : "Arial"
								}

							}
, 							{
								"box" : 								{
									"maxclass" : "number",
									"numinlets" : 1,
									"id" : "obj-256",
									"numoutlets" : 2,
									"fontsize" : 12.0,
									"outlettype" : [ "int", "bang" ],
									"patching_rect" : [ 652.25, 519.400024, 50.0, 20.0 ],
									"fontname" : "Arial"
								}

							}
, 							{
								"box" : 								{
									"maxclass" : "number",
									"numinlets" : 1,
									"id" : "obj-253",
									"numoutlets" : 2,
									"fontsize" : 12.0,
									"outlettype" : [ "int", "bang" ],
									"patching_rect" : [ 513.25, 519.400024, 50.0, 20.0 ],
									"fontname" : "Arial"
								}

							}
, 							{
								"box" : 								{
									"maxclass" : "number",
									"numinlets" : 1,
									"id" : "obj-254",
									"numoutlets" : 2,
									"fontsize" : 12.0,
									"outlettype" : [ "int", "bang" ],
									"patching_rect" : [ 409.25, 519.400024, 50.0, 20.0 ],
									"fontname" : "Arial"
								}

							}
, 							{
								"box" : 								{
									"maxclass" : "number",
									"numinlets" : 1,
									"id" : "obj-252",
									"numoutlets" : 2,
									"fontsize" : 12.0,
									"outlettype" : [ "int", "bang" ],
									"patching_rect" : [ 848.900024, 289.600006, 50.0, 20.0 ],
									"fontname" : "Arial"
								}

							}
, 							{
								"box" : 								{
									"maxclass" : "number",
									"numinlets" : 1,
									"id" : "obj-251",
									"numoutlets" : 2,
									"fontsize" : 12.0,
									"outlettype" : [ "int", "bang" ],
									"patching_rect" : [ 645.25, 291.600006, 50.0, 20.0 ],
									"fontname" : "Arial"
								}

							}
, 							{
								"box" : 								{
									"maxclass" : "number",
									"numinlets" : 1,
									"id" : "obj-250",
									"numoutlets" : 2,
									"fontsize" : 12.0,
									"outlettype" : [ "int", "bang" ],
									"patching_rect" : [ 509.25, 291.600006, 50.0, 20.0 ],
									"fontname" : "Arial"
								}

							}
, 							{
								"box" : 								{
									"maxclass" : "number",
									"numinlets" : 1,
									"id" : "obj-249",
									"numoutlets" : 2,
									"fontsize" : 12.0,
									"outlettype" : [ "int", "bang" ],
									"patching_rect" : [ 402.25, 291.600006, 50.0, 20.0 ],
									"fontname" : "Arial"
								}

							}
, 							{
								"box" : 								{
									"maxclass" : "number",
									"numinlets" : 1,
									"id" : "obj-248",
									"numoutlets" : 2,
									"fontsize" : 12.0,
									"outlettype" : [ "int", "bang" ],
									"patching_rect" : [ 153.700012, 286.799988, 50.0, 20.0 ],
									"fontname" : "Arial"
								}

							}
, 							{
								"box" : 								{
									"maxclass" : "number",
									"numinlets" : 1,
									"id" : "obj-247",
									"numoutlets" : 2,
									"fontsize" : 12.0,
									"outlettype" : [ "int", "bang" ],
									"patching_rect" : [ 64.000015, 286.799988, 50.0, 20.0 ],
									"fontname" : "Arial"
								}

							}
, 							{
								"box" : 								{
									"maxclass" : "newobj",
									"text" : "buttonLog",
									"numinlets" : 1,
									"id" : "obj-238",
									"numoutlets" : 2,
									"fontsize" : 12.0,
									"outlettype" : [ "", "int" ],
									"patching_rect" : [ 841.900024, 402.399994, 64.0, 20.0 ],
									"fontname" : "Arial"
								}

							}
, 							{
								"box" : 								{
									"maxclass" : "newobj",
									"text" : "coll Start",
									"numinlets" : 1,
									"id" : "obj-239",
									"numoutlets" : 4,
									"fontsize" : 12.0,
									"outlettype" : [ "", "", "", "" ],
									"patching_rect" : [ 841.900024, 549.400024, 57.0, 20.0 ],
									"fontname" : "Arial",
									"saved_object_attributes" : 									{
										"embed" : 0
									}

								}

							}
, 							{
								"box" : 								{
									"maxclass" : "message",
									"text" : "55",
									"numinlets" : 2,
									"id" : "obj-240",
									"numoutlets" : 1,
									"fontsize" : 12.0,
									"outlettype" : [ "" ],
									"patching_rect" : [ 841.900024, 368.399994, 29.5, 18.0 ],
									"fontname" : "Arial"
								}

							}
, 							{
								"box" : 								{
									"maxclass" : "comment",
									"text" : "Start",
									"numinlets" : 1,
									"id" : "obj-241",
									"numoutlets" : 0,
									"fontsize" : 10.0,
									"patching_rect" : [ 876.900024, 368.399994, 38.0, 18.0 ],
									"fontname" : "Arial"
								}

							}
, 							{
								"box" : 								{
									"maxclass" : "newobj",
									"text" : "buttonLog",
									"numinlets" : 1,
									"id" : "obj-242",
									"numoutlets" : 2,
									"fontsize" : 12.0,
									"outlettype" : [ "", "int" ],
									"patching_rect" : [ 834.400024, 186.0, 64.0, 20.0 ],
									"fontname" : "Arial"
								}

							}
, 							{
								"box" : 								{
									"maxclass" : "newobj",
									"text" : "coll Select",
									"numinlets" : 1,
									"id" : "obj-243",
									"numoutlets" : 4,
									"fontsize" : 12.0,
									"outlettype" : [ "", "", "", "" ],
									"patching_rect" : [ 833.900024, 317.600006, 65.0, 20.0 ],
									"fontname" : "Arial",
									"saved_object_attributes" : 									{
										"embed" : 0
									}

								}

							}
, 							{
								"box" : 								{
									"maxclass" : "message",
									"text" : "54",
									"numinlets" : 2,
									"id" : "obj-244",
									"numoutlets" : 1,
									"fontsize" : 12.0,
									"outlettype" : [ "" ],
									"patching_rect" : [ 833.900024, 127.0, 29.5, 18.0 ],
									"fontname" : "Arial"
								}

							}
, 							{
								"box" : 								{
									"maxclass" : "comment",
									"text" : "Select",
									"numinlets" : 1,
									"id" : "obj-245",
									"numoutlets" : 0,
									"fontsize" : 10.0,
									"patching_rect" : [ 868.900024, 127.0, 38.0, 18.0 ],
									"fontname" : "Arial"
								}

							}
, 							{
								"box" : 								{
									"maxclass" : "newobj",
									"text" : "buttonLog",
									"numinlets" : 1,
									"id" : "obj-230",
									"numoutlets" : 2,
									"fontsize" : 12.0,
									"outlettype" : [ "", "int" ],
									"patching_rect" : [ 638.25, 404.399994, 64.0, 20.0 ],
									"fontname" : "Arial"
								}

							}
, 							{
								"box" : 								{
									"maxclass" : "newobj",
									"text" : "coll R1",
									"numinlets" : 1,
									"id" : "obj-231",
									"numoutlets" : 4,
									"fontsize" : 12.0,
									"outlettype" : [ "", "", "", "" ],
									"patching_rect" : [ 638.25, 551.400024, 50.5, 20.0 ],
									"fontname" : "Arial",
									"saved_object_attributes" : 									{
										"embed" : 0
									}

								}

							}
, 							{
								"box" : 								{
									"maxclass" : "message",
									"text" : "53",
									"numinlets" : 2,
									"id" : "obj-232",
									"numoutlets" : 1,
									"fontsize" : 12.0,
									"outlettype" : [ "" ],
									"patching_rect" : [ 638.25, 370.399994, 29.5, 18.0 ],
									"fontname" : "Arial"
								}

							}
, 							{
								"box" : 								{
									"maxclass" : "comment",
									"text" : "R1",
									"numinlets" : 1,
									"id" : "obj-233",
									"numoutlets" : 0,
									"fontsize" : 10.0,
									"patching_rect" : [ 673.25, 370.399994, 38.0, 18.0 ],
									"fontname" : "Arial"
								}

							}
, 							{
								"box" : 								{
									"maxclass" : "newobj",
									"text" : "buttonLog",
									"numinlets" : 1,
									"id" : "obj-234",
									"numoutlets" : 2,
									"fontsize" : 12.0,
									"outlettype" : [ "", "int" ],
									"patching_rect" : [ 630.75, 188.0, 64.0, 20.0 ],
									"fontname" : "Arial"
								}

							}
, 							{
								"box" : 								{
									"maxclass" : "newobj",
									"text" : "coll L1",
									"numinlets" : 1,
									"id" : "obj-235",
									"numoutlets" : 4,
									"fontsize" : 12.0,
									"outlettype" : [ "", "", "", "" ],
									"patching_rect" : [ 630.25, 319.600006, 50.5, 20.0 ],
									"fontname" : "Arial",
									"saved_object_attributes" : 									{
										"embed" : 0
									}

								}

							}
, 							{
								"box" : 								{
									"maxclass" : "message",
									"text" : "52",
									"numinlets" : 2,
									"id" : "obj-236",
									"numoutlets" : 1,
									"fontsize" : 12.0,
									"outlettype" : [ "" ],
									"patching_rect" : [ 630.25, 129.0, 29.5, 18.0 ],
									"fontname" : "Arial"
								}

							}
, 							{
								"box" : 								{
									"maxclass" : "comment",
									"text" : "L1",
									"numinlets" : 1,
									"id" : "obj-237",
									"numoutlets" : 0,
									"fontsize" : 10.0,
									"patching_rect" : [ 665.25, 129.0, 38.0, 18.0 ],
									"fontname" : "Arial"
								}

							}
, 							{
								"box" : 								{
									"maxclass" : "newobj",
									"text" : "buttonLog",
									"numinlets" : 1,
									"id" : "obj-226",
									"numoutlets" : 2,
									"fontsize" : 12.0,
									"outlettype" : [ "", "int" ],
									"patching_rect" : [ 395.25, 404.399994, 64.0, 20.0 ],
									"fontname" : "Arial"
								}

							}
, 							{
								"box" : 								{
									"maxclass" : "newobj",
									"text" : "coll Square",
									"numinlets" : 1,
									"id" : "obj-227",
									"numoutlets" : 4,
									"fontsize" : 12.0,
									"outlettype" : [ "", "", "", "" ],
									"patching_rect" : [ 395.25, 551.400024, 71.0, 20.0 ],
									"fontname" : "Arial",
									"saved_object_attributes" : 									{
										"embed" : 0
									}

								}

							}
, 							{
								"box" : 								{
									"maxclass" : "message",
									"text" : "50",
									"numinlets" : 2,
									"id" : "obj-228",
									"numoutlets" : 1,
									"fontsize" : 12.0,
									"outlettype" : [ "" ],
									"patching_rect" : [ 395.25, 370.399994, 29.5, 18.0 ],
									"fontname" : "Arial"
								}

							}
, 							{
								"box" : 								{
									"maxclass" : "comment",
									"text" : "Square",
									"numinlets" : 1,
									"id" : "obj-229",
									"numoutlets" : 0,
									"fontsize" : 10.0,
									"patching_rect" : [ 430.25, 370.399994, 45.0, 18.0 ],
									"fontname" : "Arial"
								}

							}
, 							{
								"box" : 								{
									"maxclass" : "newobj",
									"text" : "buttonLog",
									"numinlets" : 1,
									"id" : "obj-222",
									"numoutlets" : 2,
									"fontsize" : 12.0,
									"outlettype" : [ "", "int" ],
									"patching_rect" : [ 502.25, 404.399994, 64.0, 20.0 ],
									"fontname" : "Arial"
								}

							}
, 							{
								"box" : 								{
									"maxclass" : "newobj",
									"text" : "coll Triangle",
									"numinlets" : 1,
									"id" : "obj-223",
									"numoutlets" : 4,
									"fontsize" : 12.0,
									"outlettype" : [ "", "", "", "" ],
									"patching_rect" : [ 502.25, 551.400024, 75.0, 20.0 ],
									"fontname" : "Arial",
									"saved_object_attributes" : 									{
										"embed" : 0
									}

								}

							}
, 							{
								"box" : 								{
									"maxclass" : "message",
									"text" : "51",
									"numinlets" : 2,
									"id" : "obj-224",
									"numoutlets" : 1,
									"fontsize" : 12.0,
									"outlettype" : [ "" ],
									"patching_rect" : [ 502.25, 370.399994, 29.5, 18.0 ],
									"fontname" : "Arial"
								}

							}
, 							{
								"box" : 								{
									"maxclass" : "comment",
									"text" : "Triangle",
									"numinlets" : 1,
									"id" : "obj-225",
									"numoutlets" : 0,
									"fontsize" : 10.0,
									"patching_rect" : [ 537.25, 370.399994, 48.0, 18.0 ],
									"fontname" : "Arial"
								}

							}
, 							{
								"box" : 								{
									"maxclass" : "newobj",
									"text" : "buttonLog",
									"numinlets" : 1,
									"id" : "obj-217",
									"numoutlets" : 2,
									"fontsize" : 12.0,
									"outlettype" : [ "", "int" ],
									"patching_rect" : [ 494.75, 188.0, 64.0, 20.0 ],
									"fontname" : "Arial"
								}

							}
, 							{
								"box" : 								{
									"maxclass" : "newobj",
									"text" : "coll Y",
									"numinlets" : 1,
									"id" : "obj-218",
									"numoutlets" : 4,
									"fontsize" : 12.0,
									"outlettype" : [ "", "", "", "" ],
									"patching_rect" : [ 494.25, 319.600006, 50.5, 20.0 ],
									"fontname" : "Arial",
									"saved_object_attributes" : 									{
										"embed" : 0
									}

								}

							}
, 							{
								"box" : 								{
									"maxclass" : "message",
									"text" : "49",
									"numinlets" : 2,
									"id" : "obj-219",
									"numoutlets" : 1,
									"fontsize" : 12.0,
									"outlettype" : [ "" ],
									"patching_rect" : [ 494.25, 129.0, 29.5, 18.0 ],
									"fontname" : "Arial"
								}

							}
, 							{
								"box" : 								{
									"maxclass" : "comment",
									"text" : "Y",
									"numinlets" : 1,
									"id" : "obj-220",
									"numoutlets" : 0,
									"fontsize" : 10.0,
									"patching_rect" : [ 529.25, 129.0, 38.0, 18.0 ],
									"fontname" : "Arial"
								}

							}
, 							{
								"box" : 								{
									"maxclass" : "newobj",
									"text" : "buttonLog",
									"numinlets" : 1,
									"id" : "obj-213",
									"numoutlets" : 2,
									"fontsize" : 12.0,
									"outlettype" : [ "", "int" ],
									"patching_rect" : [ 390.75, 188.0, 64.0, 20.0 ],
									"fontname" : "Arial"
								}

							}
, 							{
								"box" : 								{
									"maxclass" : "newobj",
									"text" : "coll X",
									"numinlets" : 1,
									"id" : "obj-214",
									"numoutlets" : 4,
									"fontsize" : 12.0,
									"outlettype" : [ "", "", "", "" ],
									"patching_rect" : [ 390.25, 319.600006, 50.5, 20.0 ],
									"fontname" : "Arial",
									"saved_object_attributes" : 									{
										"embed" : 0
									}

								}

							}
, 							{
								"box" : 								{
									"maxclass" : "message",
									"text" : "48",
									"numinlets" : 2,
									"id" : "obj-215",
									"numoutlets" : 1,
									"fontsize" : 12.0,
									"outlettype" : [ "" ],
									"patching_rect" : [ 390.25, 129.0, 29.5, 18.0 ],
									"fontname" : "Arial"
								}

							}
, 							{
								"box" : 								{
									"maxclass" : "comment",
									"text" : "X",
									"numinlets" : 1,
									"id" : "obj-216",
									"numoutlets" : 0,
									"fontsize" : 10.0,
									"patching_rect" : [ 425.25, 129.0, 38.0, 18.0 ],
									"fontname" : "Arial"
								}

							}
, 							{
								"box" : 								{
									"maxclass" : "newobj",
									"text" : "loadbang",
									"numinlets" : 1,
									"id" : "obj-212",
									"numoutlets" : 1,
									"fontsize" : 12.0,
									"outlettype" : [ "bang" ],
									"patching_rect" : [ 50.0, 66.0, 60.0, 20.0 ],
									"fontname" : "Arial"
								}

							}
, 							{
								"box" : 								{
									"maxclass" : "newobj",
									"text" : "buttonLog",
									"numinlets" : 1,
									"id" : "obj-208",
									"numoutlets" : 2,
									"fontsize" : 12.0,
									"outlettype" : [ "", "int" ],
									"patching_rect" : [ 137.999985, 188.0, 64.0, 20.0 ],
									"fontname" : "Arial"
								}

							}
, 							{
								"box" : 								{
									"maxclass" : "newobj",
									"text" : "coll LyAxis",
									"numinlets" : 1,
									"id" : "obj-209",
									"numoutlets" : 4,
									"fontsize" : 12.0,
									"outlettype" : [ "", "", "", "" ],
									"patching_rect" : [ 137.500015, 314.799988, 67.0, 20.0 ],
									"fontname" : "Arial",
									"saved_object_attributes" : 									{
										"embed" : 0
									}

								}

							}
, 							{
								"box" : 								{
									"maxclass" : "message",
									"text" : "4",
									"numinlets" : 2,
									"id" : "obj-210",
									"numoutlets" : 1,
									"fontsize" : 12.0,
									"outlettype" : [ "" ],
									"patching_rect" : [ 137.5, 129.0, 29.5, 18.0 ],
									"fontname" : "Arial"
								}

							}
, 							{
								"box" : 								{
									"maxclass" : "comment",
									"text" : "LyAxis",
									"numinlets" : 1,
									"id" : "obj-211",
									"numoutlets" : 0,
									"fontsize" : 10.0,
									"patching_rect" : [ 172.5, 129.0, 44.0, 18.0 ],
									"fontname" : "Arial"
								}

							}
, 							{
								"box" : 								{
									"maxclass" : "newobj",
									"text" : "buttonLog",
									"numinlets" : 1,
									"id" : "obj-205",
									"numoutlets" : 2,
									"fontsize" : 12.0,
									"outlettype" : [ "", "int" ],
									"patching_rect" : [ 50.499989, 188.0, 64.0, 20.0 ],
									"fontname" : "Arial"
								}

							}
, 							{
								"box" : 								{
									"maxclass" : "newobj",
									"text" : "coll LxAxis",
									"numinlets" : 1,
									"id" : "obj-1",
									"numoutlets" : 4,
									"fontsize" : 12.0,
									"outlettype" : [ "", "", "", "" ],
									"patching_rect" : [ 50.000011, 314.799988, 67.0, 20.0 ],
									"fontname" : "Arial",
									"saved_object_attributes" : 									{
										"embed" : 0
									}

								}

							}
, 							{
								"box" : 								{
									"maxclass" : "message",
									"text" : "0",
									"numinlets" : 2,
									"id" : "obj-12",
									"numoutlets" : 1,
									"fontsize" : 12.0,
									"outlettype" : [ "" ],
									"patching_rect" : [ 50.0, 129.0, 29.5, 18.0 ],
									"fontname" : "Arial"
								}

							}
, 							{
								"box" : 								{
									"maxclass" : "comment",
									"text" : "LxAxis",
									"numinlets" : 1,
									"id" : "obj-50",
									"numoutlets" : 0,
									"fontsize" : 10.0,
									"patching_rect" : [ 85.0, 129.0, 38.0, 18.0 ],
									"fontname" : "Arial"
								}

							}
, 							{
								"box" : 								{
									"maxclass" : "newobj",
									"text" : "scale 1 65535 -10 10",
									"numinlets" : 6,
									"id" : "obj-98",
									"numoutlets" : 1,
									"fontsize" : 12.0,
									"outlettype" : [ "int" ],
									"patching_rect" : [ 2.350003, 225.300003, 123.0, 20.0 ],
									"fontname" : "Arial"
								}

							}
, 							{
								"box" : 								{
									"maxclass" : "flonum",
									"numinlets" : 1,
									"id" : "obj-101",
									"numoutlets" : 2,
									"fontsize" : 12.0,
									"outlettype" : [ "float", "bang" ],
									"patching_rect" : [ 2.350003, 255.200012, 50.0, 20.0 ],
									"fontname" : "Arial"
								}

							}
, 							{
								"box" : 								{
									"maxclass" : "flonum",
									"numinlets" : 1,
									"id" : "obj-102",
									"numoutlets" : 2,
									"fontsize" : 12.0,
									"outlettype" : [ "float", "bang" ],
									"patching_rect" : [ 152.100006, 255.200012, 50.0, 20.0 ],
									"fontname" : "Arial"
								}

							}
, 							{
								"box" : 								{
									"maxclass" : "newobj",
									"text" : "scale 0 65534 10 -10",
									"numinlets" : 6,
									"id" : "obj-103",
									"numoutlets" : 1,
									"fontsize" : 12.0,
									"outlettype" : [ "int" ],
									"patching_rect" : [ 137.999985, 225.300003, 123.0, 20.0 ],
									"fontname" : "Arial"
								}

							}
 ],
						"lines" : [ 							{
								"patchline" : 								{
									"source" : [ "obj-20", 0 ],
									"destination" : [ "obj-209", 0 ],
									"hidden" : 0,
									"midpoints" : [  ]
								}

							}
, 							{
								"patchline" : 								{
									"source" : [ "obj-31", 0 ],
									"destination" : [ "obj-20", 0 ],
									"hidden" : 0,
									"midpoints" : [  ]
								}

							}
, 							{
								"patchline" : 								{
									"source" : [ "obj-30", 0 ],
									"destination" : [ "obj-1", 0 ],
									"hidden" : 0,
									"midpoints" : [  ]
								}

							}
, 							{
								"patchline" : 								{
									"source" : [ "obj-7", 0 ],
									"destination" : [ "obj-23", 0 ],
									"hidden" : 0,
									"midpoints" : [  ]
								}

							}
, 							{
								"patchline" : 								{
									"source" : [ "obj-98", 0 ],
									"destination" : [ "obj-101", 0 ],
									"hidden" : 0,
									"midpoints" : [  ]
								}

							}
, 							{
								"patchline" : 								{
									"source" : [ "obj-97", 0 ],
									"destination" : [ "obj-253", 0 ],
									"hidden" : 0,
									"midpoints" : [  ]
								}

							}
, 							{
								"patchline" : 								{
									"source" : [ "obj-96", 0 ],
									"destination" : [ "obj-256", 0 ],
									"hidden" : 0,
									"midpoints" : [  ]
								}

							}
, 							{
								"patchline" : 								{
									"source" : [ "obj-95", 0 ],
									"destination" : [ "obj-66", 0 ],
									"hidden" : 0,
									"midpoints" : [  ]
								}

							}
, 							{
								"patchline" : 								{
									"source" : [ "obj-94", 0 ],
									"destination" : [ "obj-255", 0 ],
									"hidden" : 0,
									"midpoints" : [  ]
								}

							}
, 							{
								"patchline" : 								{
									"source" : [ "obj-93", 0 ],
									"destination" : [ "obj-254", 0 ],
									"hidden" : 0,
									"midpoints" : [  ]
								}

							}
, 							{
								"patchline" : 								{
									"source" : [ "obj-92", 0 ],
									"destination" : [ "obj-249", 0 ],
									"hidden" : 0,
									"midpoints" : [  ]
								}

							}
, 							{
								"patchline" : 								{
									"source" : [ "obj-91", 0 ],
									"destination" : [ "obj-252", 0 ],
									"hidden" : 0,
									"midpoints" : [  ]
								}

							}
, 							{
								"patchline" : 								{
									"source" : [ "obj-90", 0 ],
									"destination" : [ "obj-67", 0 ],
									"hidden" : 0,
									"midpoints" : [  ]
								}

							}
, 							{
								"patchline" : 								{
									"source" : [ "obj-89", 0 ],
									"destination" : [ "obj-251", 0 ],
									"hidden" : 0,
									"midpoints" : [  ]
								}

							}
, 							{
								"patchline" : 								{
									"source" : [ "obj-88", 0 ],
									"destination" : [ "obj-250", 0 ],
									"hidden" : 0,
									"midpoints" : [  ]
								}

							}
, 							{
								"patchline" : 								{
									"source" : [ "obj-86", 0 ],
									"destination" : [ "obj-85", 0 ],
									"hidden" : 0,
									"midpoints" : [  ]
								}

							}
, 							{
								"patchline" : 								{
									"source" : [ "obj-85", 0 ],
									"destination" : [ "obj-87", 0 ],
									"hidden" : 0,
									"midpoints" : [  ]
								}

							}
, 							{
								"patchline" : 								{
									"source" : [ "obj-83", 0 ],
									"destination" : [ "obj-86", 1 ],
									"hidden" : 0,
									"midpoints" : [  ]
								}

							}
, 							{
								"patchline" : 								{
									"source" : [ "obj-81", 0 ],
									"destination" : [ "obj-79", 0 ],
									"hidden" : 0,
									"midpoints" : [  ]
								}

							}
, 							{
								"patchline" : 								{
									"source" : [ "obj-79", 1 ],
									"destination" : [ "obj-86", 0 ],
									"hidden" : 0,
									"midpoints" : [  ]
								}

							}
, 							{
								"patchline" : 								{
									"source" : [ "obj-79", 1 ],
									"destination" : [ "obj-83", 0 ],
									"hidden" : 0,
									"midpoints" : [  ]
								}

							}
, 							{
								"patchline" : 								{
									"source" : [ "obj-79", 0 ],
									"destination" : [ "obj-80", 0 ],
									"hidden" : 0,
									"midpoints" : [  ]
								}

							}
, 							{
								"patchline" : 								{
									"source" : [ "obj-79", 1 ],
									"destination" : [ "obj-78", 0 ],
									"hidden" : 0,
									"midpoints" : [  ]
								}

							}
, 							{
								"patchline" : 								{
									"source" : [ "obj-74", 0 ],
									"destination" : [ "obj-72", 0 ],
									"hidden" : 0,
									"midpoints" : [  ]
								}

							}
, 							{
								"patchline" : 								{
									"source" : [ "obj-72", 1 ],
									"destination" : [ "obj-90", 0 ],
									"hidden" : 0,
									"midpoints" : [  ]
								}

							}
, 							{
								"patchline" : 								{
									"source" : [ "obj-72", 0 ],
									"destination" : [ "obj-73", 0 ],
									"hidden" : 0,
									"midpoints" : [  ]
								}

							}
, 							{
								"patchline" : 								{
									"source" : [ "obj-70", 0 ],
									"destination" : [ "obj-68", 0 ],
									"hidden" : 0,
									"midpoints" : [  ]
								}

							}
, 							{
								"patchline" : 								{
									"source" : [ "obj-68", 1 ],
									"destination" : [ "obj-95", 0 ],
									"hidden" : 0,
									"midpoints" : [  ]
								}

							}
, 							{
								"patchline" : 								{
									"source" : [ "obj-68", 0 ],
									"destination" : [ "obj-69", 0 ],
									"hidden" : 0,
									"midpoints" : [  ]
								}

							}
, 							{
								"patchline" : 								{
									"source" : [ "obj-67", 0 ],
									"destination" : [ "obj-76", 0 ],
									"hidden" : 0,
									"midpoints" : [  ]
								}

							}
, 							{
								"patchline" : 								{
									"source" : [ "obj-66", 0 ],
									"destination" : [ "obj-77", 0 ],
									"hidden" : 0,
									"midpoints" : [  ]
								}

							}
, 							{
								"patchline" : 								{
									"source" : [ "obj-6", 0 ],
									"destination" : [ "obj-2", 0 ],
									"hidden" : 0,
									"midpoints" : [  ]
								}

							}
, 							{
								"patchline" : 								{
									"source" : [ "obj-43", 0 ],
									"destination" : [ "obj-41", 0 ],
									"hidden" : 0,
									"midpoints" : [  ]
								}

							}
, 							{
								"patchline" : 								{
									"source" : [ "obj-41", 0 ],
									"destination" : [ "obj-42", 0 ],
									"hidden" : 0,
									"midpoints" : [  ]
								}

							}
, 							{
								"patchline" : 								{
									"source" : [ "obj-41", 1 ],
									"destination" : [ "obj-36", 0 ],
									"hidden" : 0,
									"midpoints" : [  ]
								}

							}
, 							{
								"patchline" : 								{
									"source" : [ "obj-41", 1 ],
									"destination" : [ "obj-104", 0 ],
									"hidden" : 0,
									"midpoints" : [  ]
								}

							}
, 							{
								"patchline" : 								{
									"source" : [ "obj-4", 0 ],
									"destination" : [ "obj-2", 0 ],
									"hidden" : 0,
									"midpoints" : [  ]
								}

							}
, 							{
								"patchline" : 								{
									"source" : [ "obj-39", 0 ],
									"destination" : [ "obj-37", 0 ],
									"hidden" : 0,
									"midpoints" : [  ]
								}

							}
, 							{
								"patchline" : 								{
									"source" : [ "obj-37", 0 ],
									"destination" : [ "obj-38", 0 ],
									"hidden" : 0,
									"midpoints" : [  ]
								}

							}
, 							{
								"patchline" : 								{
									"source" : [ "obj-37", 1 ],
									"destination" : [ "obj-35", 0 ],
									"hidden" : 0,
									"midpoints" : [  ]
								}

							}
, 							{
								"patchline" : 								{
									"source" : [ "obj-37", 1 ],
									"destination" : [ "obj-107", 0 ],
									"hidden" : 0,
									"midpoints" : [  ]
								}

							}
, 							{
								"patchline" : 								{
									"source" : [ "obj-3", 0 ],
									"destination" : [ "obj-2", 0 ],
									"hidden" : 0,
									"midpoints" : [  ]
								}

							}
, 							{
								"patchline" : 								{
									"source" : [ "obj-28", 0 ],
									"destination" : [ "obj-2", 0 ],
									"hidden" : 0,
									"midpoints" : [  ]
								}

							}
, 							{
								"patchline" : 								{
									"source" : [ "obj-26", 0 ],
									"destination" : [ "obj-28", 0 ],
									"hidden" : 0,
									"midpoints" : [  ]
								}

							}
, 							{
								"patchline" : 								{
									"source" : [ "obj-256", 0 ],
									"destination" : [ "obj-17", 0 ],
									"hidden" : 0,
									"midpoints" : [  ]
								}

							}
, 							{
								"patchline" : 								{
									"source" : [ "obj-255", 0 ],
									"destination" : [ "obj-15", 0 ],
									"hidden" : 0,
									"midpoints" : [  ]
								}

							}
, 							{
								"patchline" : 								{
									"source" : [ "obj-254", 0 ],
									"destination" : [ "obj-14", 0 ],
									"hidden" : 0,
									"midpoints" : [  ]
								}

							}
, 							{
								"patchline" : 								{
									"source" : [ "obj-253", 0 ],
									"destination" : [ "obj-19", 0 ],
									"hidden" : 0,
									"midpoints" : [  ]
								}

							}
, 							{
								"patchline" : 								{
									"source" : [ "obj-252", 0 ],
									"destination" : [ "obj-16", 0 ],
									"hidden" : 0,
									"midpoints" : [  ]
								}

							}
, 							{
								"patchline" : 								{
									"source" : [ "obj-251", 0 ],
									"destination" : [ "obj-18", 0 ],
									"hidden" : 0,
									"midpoints" : [  ]
								}

							}
, 							{
								"patchline" : 								{
									"source" : [ "obj-250", 0 ],
									"destination" : [ "obj-13", 0 ],
									"hidden" : 0,
									"midpoints" : [  ]
								}

							}
, 							{
								"patchline" : 								{
									"source" : [ "obj-249", 0 ],
									"destination" : [ "obj-11", 0 ],
									"hidden" : 0,
									"midpoints" : [  ]
								}

							}
, 							{
								"patchline" : 								{
									"source" : [ "obj-244", 0 ],
									"destination" : [ "obj-242", 0 ],
									"hidden" : 0,
									"midpoints" : [  ]
								}

							}
, 							{
								"patchline" : 								{
									"source" : [ "obj-242", 1 ],
									"destination" : [ "obj-91", 0 ],
									"hidden" : 0,
									"midpoints" : [  ]
								}

							}
, 							{
								"patchline" : 								{
									"source" : [ "obj-242", 0 ],
									"destination" : [ "obj-243", 0 ],
									"hidden" : 0,
									"midpoints" : [  ]
								}

							}
, 							{
								"patchline" : 								{
									"source" : [ "obj-240", 0 ],
									"destination" : [ "obj-238", 0 ],
									"hidden" : 0,
									"midpoints" : [  ]
								}

							}
, 							{
								"patchline" : 								{
									"source" : [ "obj-238", 1 ],
									"destination" : [ "obj-94", 0 ],
									"hidden" : 0,
									"midpoints" : [  ]
								}

							}
, 							{
								"patchline" : 								{
									"source" : [ "obj-238", 0 ],
									"destination" : [ "obj-239", 0 ],
									"hidden" : 0,
									"midpoints" : [  ]
								}

							}
, 							{
								"patchline" : 								{
									"source" : [ "obj-236", 0 ],
									"destination" : [ "obj-234", 0 ],
									"hidden" : 0,
									"midpoints" : [  ]
								}

							}
, 							{
								"patchline" : 								{
									"source" : [ "obj-234", 1 ],
									"destination" : [ "obj-89", 0 ],
									"hidden" : 0,
									"midpoints" : [  ]
								}

							}
, 							{
								"patchline" : 								{
									"source" : [ "obj-234", 0 ],
									"destination" : [ "obj-235", 0 ],
									"hidden" : 0,
									"midpoints" : [  ]
								}

							}
, 							{
								"patchline" : 								{
									"source" : [ "obj-232", 0 ],
									"destination" : [ "obj-230", 0 ],
									"hidden" : 0,
									"midpoints" : [  ]
								}

							}
, 							{
								"patchline" : 								{
									"source" : [ "obj-230", 1 ],
									"destination" : [ "obj-96", 0 ],
									"hidden" : 0,
									"midpoints" : [  ]
								}

							}
, 							{
								"patchline" : 								{
									"source" : [ "obj-230", 0 ],
									"destination" : [ "obj-231", 0 ],
									"hidden" : 0,
									"midpoints" : [  ]
								}

							}
, 							{
								"patchline" : 								{
									"source" : [ "obj-23", 0 ],
									"destination" : [ "obj-1", 0 ],
									"hidden" : 0,
									"midpoints" : [  ]
								}

							}
, 							{
								"patchline" : 								{
									"source" : [ "obj-228", 0 ],
									"destination" : [ "obj-226", 0 ],
									"hidden" : 0,
									"midpoints" : [  ]
								}

							}
, 							{
								"patchline" : 								{
									"source" : [ "obj-226", 1 ],
									"destination" : [ "obj-93", 0 ],
									"hidden" : 0,
									"midpoints" : [  ]
								}

							}
, 							{
								"patchline" : 								{
									"source" : [ "obj-226", 0 ],
									"destination" : [ "obj-227", 0 ],
									"hidden" : 0,
									"midpoints" : [  ]
								}

							}
, 							{
								"patchline" : 								{
									"source" : [ "obj-224", 0 ],
									"destination" : [ "obj-222", 0 ],
									"hidden" : 0,
									"midpoints" : [  ]
								}

							}
, 							{
								"patchline" : 								{
									"source" : [ "obj-222", 1 ],
									"destination" : [ "obj-97", 0 ],
									"hidden" : 0,
									"midpoints" : [  ]
								}

							}
, 							{
								"patchline" : 								{
									"source" : [ "obj-222", 0 ],
									"destination" : [ "obj-223", 0 ],
									"hidden" : 0,
									"midpoints" : [  ]
								}

							}
, 							{
								"patchline" : 								{
									"source" : [ "obj-219", 0 ],
									"destination" : [ "obj-217", 0 ],
									"hidden" : 0,
									"midpoints" : [  ]
								}

							}
, 							{
								"patchline" : 								{
									"source" : [ "obj-217", 1 ],
									"destination" : [ "obj-88", 0 ],
									"hidden" : 0,
									"midpoints" : [  ]
								}

							}
, 							{
								"patchline" : 								{
									"source" : [ "obj-217", 0 ],
									"destination" : [ "obj-218", 0 ],
									"hidden" : 0,
									"midpoints" : [  ]
								}

							}
, 							{
								"patchline" : 								{
									"source" : [ "obj-215", 0 ],
									"destination" : [ "obj-213", 0 ],
									"hidden" : 0,
									"midpoints" : [  ]
								}

							}
, 							{
								"patchline" : 								{
									"source" : [ "obj-213", 1 ],
									"destination" : [ "obj-92", 0 ],
									"hidden" : 0,
									"midpoints" : [  ]
								}

							}
, 							{
								"patchline" : 								{
									"source" : [ "obj-213", 0 ],
									"destination" : [ "obj-214", 0 ],
									"hidden" : 0,
									"midpoints" : [  ]
								}

							}
, 							{
								"patchline" : 								{
									"source" : [ "obj-212", 0 ],
									"destination" : [ "obj-81", 0 ],
									"hidden" : 0,
									"midpoints" : [  ]
								}

							}
, 							{
								"patchline" : 								{
									"source" : [ "obj-212", 0 ],
									"destination" : [ "obj-74", 0 ],
									"hidden" : 0,
									"midpoints" : [  ]
								}

							}
, 							{
								"patchline" : 								{
									"source" : [ "obj-212", 0 ],
									"destination" : [ "obj-70", 0 ],
									"hidden" : 0,
									"midpoints" : [  ]
								}

							}
, 							{
								"patchline" : 								{
									"source" : [ "obj-212", 0 ],
									"destination" : [ "obj-43", 0 ],
									"hidden" : 0,
									"midpoints" : [  ]
								}

							}
, 							{
								"patchline" : 								{
									"source" : [ "obj-212", 0 ],
									"destination" : [ "obj-39", 0 ],
									"hidden" : 0,
									"midpoints" : [  ]
								}

							}
, 							{
								"patchline" : 								{
									"source" : [ "obj-212", 0 ],
									"destination" : [ "obj-244", 0 ],
									"hidden" : 0,
									"midpoints" : [  ]
								}

							}
, 							{
								"patchline" : 								{
									"source" : [ "obj-212", 0 ],
									"destination" : [ "obj-240", 0 ],
									"hidden" : 0,
									"midpoints" : [  ]
								}

							}
, 							{
								"patchline" : 								{
									"source" : [ "obj-212", 0 ],
									"destination" : [ "obj-236", 0 ],
									"hidden" : 0,
									"midpoints" : [  ]
								}

							}
, 							{
								"patchline" : 								{
									"source" : [ "obj-212", 0 ],
									"destination" : [ "obj-232", 0 ],
									"hidden" : 0,
									"midpoints" : [  ]
								}

							}
, 							{
								"patchline" : 								{
									"source" : [ "obj-212", 0 ],
									"destination" : [ "obj-228", 0 ],
									"hidden" : 0,
									"midpoints" : [  ]
								}

							}
, 							{
								"patchline" : 								{
									"source" : [ "obj-212", 0 ],
									"destination" : [ "obj-224", 0 ],
									"hidden" : 0,
									"midpoints" : [  ]
								}

							}
, 							{
								"patchline" : 								{
									"source" : [ "obj-212", 0 ],
									"destination" : [ "obj-219", 0 ],
									"hidden" : 0,
									"midpoints" : [  ]
								}

							}
, 							{
								"patchline" : 								{
									"source" : [ "obj-212", 0 ],
									"destination" : [ "obj-215", 0 ],
									"hidden" : 0,
									"midpoints" : [  ]
								}

							}
, 							{
								"patchline" : 								{
									"source" : [ "obj-212", 0 ],
									"destination" : [ "obj-210", 0 ],
									"hidden" : 0,
									"midpoints" : [  ]
								}

							}
, 							{
								"patchline" : 								{
									"source" : [ "obj-212", 0 ],
									"destination" : [ "obj-12", 0 ],
									"hidden" : 0,
									"midpoints" : [  ]
								}

							}
, 							{
								"patchline" : 								{
									"source" : [ "obj-212", 0 ],
									"destination" : [ "obj-112", 0 ],
									"hidden" : 0,
									"midpoints" : [  ]
								}

							}
, 							{
								"patchline" : 								{
									"source" : [ "obj-210", 0 ],
									"destination" : [ "obj-208", 0 ],
									"hidden" : 0,
									"midpoints" : [  ]
								}

							}
, 							{
								"patchline" : 								{
									"source" : [ "obj-208", 1 ],
									"destination" : [ "obj-248", 0 ],
									"hidden" : 0,
									"midpoints" : [  ]
								}

							}
, 							{
								"patchline" : 								{
									"source" : [ "obj-208", 0 ],
									"destination" : [ "obj-209", 0 ],
									"hidden" : 0,
									"midpoints" : [  ]
								}

							}
, 							{
								"patchline" : 								{
									"source" : [ "obj-208", 1 ],
									"destination" : [ "obj-103", 0 ],
									"hidden" : 0,
									"midpoints" : [  ]
								}

							}
, 							{
								"patchline" : 								{
									"source" : [ "obj-205", 1 ],
									"destination" : [ "obj-98", 0 ],
									"hidden" : 0,
									"midpoints" : [  ]
								}

							}
, 							{
								"patchline" : 								{
									"source" : [ "obj-205", 1 ],
									"destination" : [ "obj-247", 0 ],
									"hidden" : 0,
									"midpoints" : [  ]
								}

							}
, 							{
								"patchline" : 								{
									"source" : [ "obj-205", 0 ],
									"destination" : [ "obj-1", 0 ],
									"hidden" : 0,
									"midpoints" : [  ]
								}

							}
, 							{
								"patchline" : 								{
									"source" : [ "obj-2", 0 ],
									"destination" : [ "obj-8", 0 ],
									"hidden" : 0,
									"midpoints" : [  ]
								}

							}
, 							{
								"patchline" : 								{
									"source" : [ "obj-2", 1 ],
									"destination" : [ "obj-5", 0 ],
									"hidden" : 0,
									"midpoints" : [  ]
								}

							}
, 							{
								"patchline" : 								{
									"source" : [ "obj-126", 0 ],
									"destination" : [ "obj-125", 0 ],
									"hidden" : 0,
									"midpoints" : [  ]
								}

							}
, 							{
								"patchline" : 								{
									"source" : [ "obj-125", 0 ],
									"destination" : [ "obj-124", 0 ],
									"hidden" : 0,
									"midpoints" : [  ]
								}

							}
, 							{
								"patchline" : 								{
									"source" : [ "obj-123", 0 ],
									"destination" : [ "obj-121", 0 ],
									"hidden" : 0,
									"midpoints" : [  ]
								}

							}
, 							{
								"patchline" : 								{
									"source" : [ "obj-12", 0 ],
									"destination" : [ "obj-205", 0 ],
									"hidden" : 0,
									"midpoints" : [  ]
								}

							}
, 							{
								"patchline" : 								{
									"source" : [ "obj-118", 0 ],
									"destination" : [ "obj-117", 0 ],
									"hidden" : 0,
									"midpoints" : [  ]
								}

							}
, 							{
								"patchline" : 								{
									"source" : [ "obj-112", 0 ],
									"destination" : [ "obj-110", 0 ],
									"hidden" : 0,
									"midpoints" : [  ]
								}

							}
, 							{
								"patchline" : 								{
									"source" : [ "obj-110", 1 ],
									"destination" : [ "obj-123", 0 ],
									"hidden" : 0,
									"midpoints" : [  ]
								}

							}
, 							{
								"patchline" : 								{
									"source" : [ "obj-110", 1 ],
									"destination" : [ "obj-114", 0 ],
									"hidden" : 0,
									"midpoints" : [  ]
								}

							}
, 							{
								"patchline" : 								{
									"source" : [ "obj-110", 0 ],
									"destination" : [ "obj-111", 0 ],
									"hidden" : 0,
									"midpoints" : [  ]
								}

							}
, 							{
								"patchline" : 								{
									"source" : [ "obj-107", 0 ],
									"destination" : [ "obj-106", 0 ],
									"hidden" : 0,
									"midpoints" : [  ]
								}

							}
, 							{
								"patchline" : 								{
									"source" : [ "obj-106", 0 ],
									"destination" : [ "obj-52", 0 ],
									"hidden" : 0,
									"midpoints" : [  ]
								}

							}
, 							{
								"patchline" : 								{
									"source" : [ "obj-105", 0 ],
									"destination" : [ "obj-53", 0 ],
									"hidden" : 0,
									"midpoints" : [  ]
								}

							}
, 							{
								"patchline" : 								{
									"source" : [ "obj-104", 0 ],
									"destination" : [ "obj-105", 0 ],
									"hidden" : 0,
									"midpoints" : [  ]
								}

							}
, 							{
								"patchline" : 								{
									"source" : [ "obj-103", 0 ],
									"destination" : [ "obj-102", 0 ],
									"hidden" : 0,
									"midpoints" : [  ]
								}

							}
, 							{
								"patchline" : 								{
									"source" : [ "obj-102", 0 ],
									"destination" : [ "obj-10", 0 ],
									"hidden" : 0,
									"midpoints" : [  ]
								}

							}
, 							{
								"patchline" : 								{
									"source" : [ "obj-101", 0 ],
									"destination" : [ "obj-9", 0 ],
									"hidden" : 0,
									"midpoints" : [  ]
								}

							}
 ]
					}
,
					"saved_object_attributes" : 					{
						"default_fontface" : 0,
						"fontface" : 0,
						"fontsize" : 12.0,
						"default_fontname" : "Arial",
						"globalpatchername" : "",
						"default_fontsize" : 12.0,
						"fontname" : "Arial"
					}

				}

			}
, 			{
				"box" : 				{
					"maxclass" : "comment",
					"text" : "0 - LStick xAxis\n4 - LStick yAxis\n12 - RStick xAxis\n16 - RStick yAxis\n32 - Directional \n48 - X\n49 - Circle\n50 - Square\n51 - Triangle \n52 - L1\n53 - R1\n54 - Select\n55 - Start \n56 - L3\n57 - R3\n8 - L2 R2",
					"linecount" : 16,
					"numinlets" : 1,
					"id" : "obj-103",
					"numoutlets" : 0,
					"fontsize" : 12.0,
					"patching_rect" : [ 364.0, 274.0, 150.0, 227.0 ],
					"fontname" : "Arial"
				}

			}
, 			{
				"box" : 				{
					"maxclass" : "number",
					"numinlets" : 1,
					"id" : "obj-96",
					"numoutlets" : 2,
					"fontsize" : 12.0,
					"outlettype" : [ "int", "bang" ],
					"patching_rect" : [ 1024.5, 15.0, 50.0, 20.0 ],
					"fontname" : "Arial"
				}

			}
, 			{
				"box" : 				{
					"maxclass" : "newobj",
					"text" : "prepend idx",
					"numinlets" : 1,
					"id" : "obj-94",
					"numoutlets" : 1,
					"fontsize" : 12.0,
					"outlettype" : [ "" ],
					"patching_rect" : [ 1024.5, 53.0, 73.0, 20.0 ],
					"fontname" : "Arial"
				}

			}
, 			{
				"box" : 				{
					"maxclass" : "message",
					"text" : "0",
					"numinlets" : 2,
					"id" : "obj-93",
					"numoutlets" : 1,
					"fontsize" : 12.0,
					"outlettype" : [ "" ],
					"patching_rect" : [ 1012.0, 128.0, 50.0, 18.0 ],
					"fontname" : "Arial"
				}

			}
, 			{
				"box" : 				{
					"maxclass" : "newobj",
					"text" : "hi",
					"numinlets" : 1,
					"id" : "obj-9",
					"numoutlets" : 2,
					"fontsize" : 12.0,
					"outlettype" : [ "list", "" ],
					"patching_rect" : [ 1024.5, 87.0, 29.5, 20.0 ],
					"fontname" : "Arial"
				}

			}
, 			{
				"box" : 				{
					"maxclass" : "newobj",
					"text" : "p clock",
					"numinlets" : 0,
					"id" : "obj-61",
					"numoutlets" : 0,
					"fontsize" : 12.0,
					"patching_rect" : [ 407.5, 10.0, 48.0, 20.0 ],
					"fontname" : "Arial",
					"patcher" : 					{
						"fileversion" : 1,
						"rect" : [ 149.0, 79.0, 640.0, 480.0 ],
						"bglocked" : 0,
						"defrect" : [ 149.0, 79.0, 640.0, 480.0 ],
						"openrect" : [ 0.0, 0.0, 0.0, 0.0 ],
						"openinpresentation" : 0,
						"default_fontsize" : 12.0,
						"default_fontface" : 0,
						"default_fontname" : "Arial",
						"gridonopen" : 1,
						"gridsize" : [ 15.0, 15.0 ],
						"gridsnaponopen" : 1,
						"toolbarvisible" : 1,
						"boxanimatetime" : 200,
						"imprint" : 0,
						"boxes" : [ 							{
								"box" : 								{
									"maxclass" : "newobj",
									"text" : "s time",
									"numinlets" : 1,
									"id" : "obj-60",
									"numoutlets" : 0,
									"fontsize" : 12.0,
									"patching_rect" : [ 67.0, 191.5, 43.0, 20.0 ],
									"fontname" : "Arial"
								}

							}
, 							{
								"box" : 								{
									"maxclass" : "newobj",
									"text" : "r start",
									"numinlets" : 0,
									"id" : "obj-59",
									"numoutlets" : 1,
									"fontsize" : 12.0,
									"outlettype" : [ "" ],
									"patching_rect" : [ 50.0, 100.0, 41.0, 20.0 ],
									"fontname" : "Arial"
								}

							}
, 							{
								"box" : 								{
									"maxclass" : "newobj",
									"text" : "r reset",
									"numinlets" : 0,
									"id" : "obj-55",
									"numoutlets" : 1,
									"fontsize" : 12.0,
									"outlettype" : [ "" ],
									"patching_rect" : [ 100.5, 68.0, 45.0, 20.0 ],
									"fontname" : "Arial"
								}

							}
, 							{
								"box" : 								{
									"maxclass" : "message",
									"text" : "reset",
									"numinlets" : 2,
									"id" : "obj-52",
									"numoutlets" : 1,
									"fontsize" : 12.0,
									"outlettype" : [ "" ],
									"patching_rect" : [ 100.5, 111.0, 37.0, 18.0 ],
									"fontname" : "Arial"
								}

							}
, 							{
								"box" : 								{
									"maxclass" : "newobj",
									"text" : "clocker",
									"numinlets" : 2,
									"id" : "obj-13",
									"numoutlets" : 1,
									"fontsize" : 12.0,
									"outlettype" : [ "float" ],
									"patching_rect" : [ 67.0, 154.0, 49.0, 20.0 ],
									"fontname" : "Arial"
								}

							}
 ],
						"lines" : [ 							{
								"patchline" : 								{
									"source" : [ "obj-59", 0 ],
									"destination" : [ "obj-13", 0 ],
									"hidden" : 0,
									"midpoints" : [  ]
								}

							}
, 							{
								"patchline" : 								{
									"source" : [ "obj-55", 0 ],
									"destination" : [ "obj-52", 0 ],
									"hidden" : 0,
									"midpoints" : [  ]
								}

							}
, 							{
								"patchline" : 								{
									"source" : [ "obj-52", 0 ],
									"destination" : [ "obj-13", 0 ],
									"hidden" : 0,
									"midpoints" : [  ]
								}

							}
, 							{
								"patchline" : 								{
									"source" : [ "obj-13", 0 ],
									"destination" : [ "obj-60", 0 ],
									"hidden" : 0,
									"midpoints" : [  ]
								}

							}
 ]
					}
,
					"saved_object_attributes" : 					{
						"default_fontface" : 0,
						"fontface" : 0,
						"fontsize" : 12.0,
						"default_fontname" : "Arial",
						"globalpatchername" : "",
						"default_fontsize" : 12.0,
						"fontname" : "Arial"
					}

				}

			}
, 			{
				"box" : 				{
					"maxclass" : "newobj",
					"text" : "s start",
					"numinlets" : 1,
					"id" : "obj-57",
					"numoutlets" : 0,
					"fontsize" : 12.0,
					"patching_rect" : [ 118.0, 47.0, 43.0, 20.0 ],
					"fontname" : "Arial"
				}

			}
, 			{
				"box" : 				{
					"maxclass" : "button",
					"numinlets" : 1,
					"id" : "obj-58",
					"numoutlets" : 1,
					"outlettype" : [ "bang" ],
					"patching_rect" : [ 118.0, 21.0, 20.0, 20.0 ]
				}

			}
, 			{
				"box" : 				{
					"maxclass" : "newobj",
					"text" : "s reset",
					"numinlets" : 1,
					"id" : "obj-56",
					"numoutlets" : 0,
					"fontsize" : 12.0,
					"patching_rect" : [ 44.0, 47.0, 47.0, 20.0 ],
					"fontname" : "Arial"
				}

			}
, 			{
				"box" : 				{
					"maxclass" : "button",
					"numinlets" : 1,
					"id" : "obj-54",
					"numoutlets" : 1,
					"outlettype" : [ "bang" ],
					"patching_rect" : [ 44.0, 21.0, 20.0, 20.0 ]
				}

			}
, 			{
				"box" : 				{
					"maxclass" : "umenu",
					"numinlets" : 1,
					"id" : "obj-4",
					"numoutlets" : 3,
					"fontsize" : 10.0,
					"outlettype" : [ "int", "", "" ],
					"patching_rect" : [ 660.0, 87.0, 150.0, 18.0 ],
					"items" : [  ],
					"fontname" : "Arial",
					"types" : [  ]
				}

			}
 ],
		"lines" : [ 			{
				"patchline" : 				{
					"source" : [ "obj-96", 0 ],
					"destination" : [ "obj-94", 0 ],
					"hidden" : 0,
					"midpoints" : [  ]
				}

			}
, 			{
				"patchline" : 				{
					"source" : [ "obj-94", 0 ],
					"destination" : [ "obj-9", 0 ],
					"hidden" : 0,
					"midpoints" : [  ]
				}

			}
, 			{
				"patchline" : 				{
					"source" : [ "obj-9", 0 ],
					"destination" : [ "obj-93", 1 ],
					"hidden" : 0,
					"midpoints" : [  ]
				}

			}
, 			{
				"patchline" : 				{
					"source" : [ "obj-9", 0 ],
					"destination" : [ "obj-5", 0 ],
					"hidden" : 0,
					"midpoints" : [  ]
				}

			}
, 			{
				"patchline" : 				{
					"source" : [ "obj-9", 1 ],
					"destination" : [ "obj-4", 0 ],
					"hidden" : 0,
					"midpoints" : [  ]
				}

			}
, 			{
				"patchline" : 				{
					"source" : [ "obj-6", 0 ],
					"destination" : [ "obj-8", 0 ],
					"hidden" : 0,
					"midpoints" : [  ]
				}

			}
, 			{
				"patchline" : 				{
					"source" : [ "obj-6", 15 ],
					"destination" : [ "obj-4", 0 ],
					"hidden" : 0,
					"midpoints" : [ 759.5, 157.0, 575.0, 157.0, 669.5, 121.0 ]
				}

			}
, 			{
				"patchline" : 				{
					"source" : [ "obj-6", 11 ],
					"destination" : [ "obj-21", 0 ],
					"hidden" : 0,
					"midpoints" : [  ]
				}

			}
, 			{
				"patchline" : 				{
					"source" : [ "obj-6", 12 ],
					"destination" : [ "obj-20", 0 ],
					"hidden" : 0,
					"midpoints" : [  ]
				}

			}
, 			{
				"patchline" : 				{
					"source" : [ "obj-6", 3 ],
					"destination" : [ "obj-2", 0 ],
					"hidden" : 0,
					"midpoints" : [  ]
				}

			}
, 			{
				"patchline" : 				{
					"source" : [ "obj-6", 4 ],
					"destination" : [ "obj-19", 0 ],
					"hidden" : 0,
					"midpoints" : [  ]
				}

			}
, 			{
				"patchline" : 				{
					"source" : [ "obj-6", 8 ],
					"destination" : [ "obj-18", 0 ],
					"hidden" : 0,
					"midpoints" : [  ]
				}

			}
, 			{
				"patchline" : 				{
					"source" : [ "obj-6", 9 ],
					"destination" : [ "obj-17", 0 ],
					"hidden" : 0,
					"midpoints" : [  ]
				}

			}
, 			{
				"patchline" : 				{
					"source" : [ "obj-6", 10 ],
					"destination" : [ "obj-16", 0 ],
					"hidden" : 0,
					"midpoints" : [  ]
				}

			}
, 			{
				"patchline" : 				{
					"source" : [ "obj-6", 13 ],
					"destination" : [ "obj-15", 0 ],
					"hidden" : 0,
					"midpoints" : [  ]
				}

			}
, 			{
				"patchline" : 				{
					"source" : [ "obj-6", 14 ],
					"destination" : [ "obj-14", 0 ],
					"hidden" : 0,
					"midpoints" : [  ]
				}

			}
, 			{
				"patchline" : 				{
					"source" : [ "obj-6", 7 ],
					"destination" : [ "obj-13", 0 ],
					"hidden" : 0,
					"midpoints" : [  ]
				}

			}
, 			{
				"patchline" : 				{
					"source" : [ "obj-6", 5 ],
					"destination" : [ "obj-12", 0 ],
					"hidden" : 0,
					"midpoints" : [  ]
				}

			}
, 			{
				"patchline" : 				{
					"source" : [ "obj-6", 6 ],
					"destination" : [ "obj-11", 0 ],
					"hidden" : 0,
					"midpoints" : [  ]
				}

			}
, 			{
				"patchline" : 				{
					"source" : [ "obj-6", 1 ],
					"destination" : [ "obj-10", 0 ],
					"hidden" : 0,
					"midpoints" : [  ]
				}

			}
, 			{
				"patchline" : 				{
					"source" : [ "obj-6", 2 ],
					"destination" : [ "obj-1", 0 ],
					"hidden" : 0,
					"midpoints" : [  ]
				}

			}
, 			{
				"patchline" : 				{
					"source" : [ "obj-58", 0 ],
					"destination" : [ "obj-57", 0 ],
					"hidden" : 0,
					"midpoints" : [  ]
				}

			}
, 			{
				"patchline" : 				{
					"source" : [ "obj-54", 0 ],
					"destination" : [ "obj-56", 0 ],
					"hidden" : 0,
					"midpoints" : [  ]
				}

			}
, 			{
				"patchline" : 				{
					"source" : [ "obj-5", 0 ],
					"destination" : [ "obj-24", 0 ],
					"hidden" : 0,
					"midpoints" : [  ]
				}

			}
, 			{
				"patchline" : 				{
					"source" : [ "obj-4", 1 ],
					"destination" : [ "obj-9", 0 ],
					"hidden" : 0,
					"midpoints" : [  ]
				}

			}
, 			{
				"patchline" : 				{
					"source" : [ "obj-4", 0 ],
					"destination" : [ "obj-6", 0 ],
					"hidden" : 0,
					"midpoints" : [ 669.5, 98.0, 53.5, 98.0 ]
				}

			}
, 			{
				"patchline" : 				{
					"source" : [ "obj-30", 0 ],
					"destination" : [ "obj-9", 0 ],
					"hidden" : 0,
					"midpoints" : [  ]
				}

			}
, 			{
				"patchline" : 				{
					"source" : [ "obj-3", 0 ],
					"destination" : [ "obj-9", 0 ],
					"hidden" : 0,
					"midpoints" : [  ]
				}

			}
, 			{
				"patchline" : 				{
					"source" : [ "obj-22", 0 ],
					"destination" : [ "obj-7", 0 ],
					"hidden" : 0,
					"midpoints" : [  ]
				}

			}
 ]
	}

}
